HIERARCHY
ROOT Hips
{
	OFFSET 0.053599 88.859886 3.107447
	CHANNELS 6 Xposition Yposition Zposition Zrotation Yrotation Xrotation 
	JOINT Spine
	{
		OFFSET -0.000000 8.814246 -2.080107
		CHANNELS 3 Zrotation Yrotation Xrotation
		JOINT Spine1
		{
			OFFSET 0.000000 8.844141 0.000000
			CHANNELS 3 Zrotation Yrotation Xrotation
			JOINT Spine2
			{
				OFFSET -0.000000 11.682268 0.000000
				CHANNELS 3 Zrotation Yrotation Xrotation
				JOINT Spine3
				{
					OFFSET 0.000000 11.746700 0.000000
					CHANNELS 3 Zrotation Yrotation Xrotation
					JOINT Neck
					{
						OFFSET -0.000000 17.658264 -0.000000
						CHANNELS 3 Zrotation Yrotation Xrotation
						JOINT Neck1
						{
							OFFSET -0.000000 5.101515 -0.000000
							CHANNELS 3 Zrotation Yrotation Xrotation
							JOINT Head
							{
								OFFSET 0.000000 5.101515 0.000000
								CHANNELS 3 Zrotation Yrotation Xrotation
								JOINT HeadEnd
								{
									OFFSET 0.000000 11.655085 0.000000
									CHANNELS 3 Zrotation Yrotation Xrotation
									End Site
									{
										OFFSET 0.000000 0.000000 0.000000
									}
								}
							}
						}
					}
					JOINT RightShoulder
					{
						OFFSET -2.625389 11.175210 0.000000
						CHANNELS 3 Zrotation Yrotation Xrotation
						JOINT RightArm
						{
							OFFSET -0.000000 10.434715 -0.000000
							CHANNELS 3 Zrotation Yrotation Xrotation
							JOINT RightForeArm
							{
								OFFSET -0.000000 29.628420 0.000000
								CHANNELS 3 Zrotation Yrotation Xrotation
								JOINT RightHand
								{
									OFFSET -0.000000 22.857611 0.000000
									CHANNELS 3 Zrotation Yrotation Xrotation
									JOINT RightHandThumb1
									{
										OFFSET -2.867323 3.959563 2.944291
										CHANNELS 3 Zrotation Yrotation Xrotation
										JOINT RightHandThumb2
										{
											OFFSET 0.000000 3.350399 0.000000
											CHANNELS 3 Zrotation Yrotation Xrotation
											JOINT RightHandThumb3
											{
												OFFSET 0.000000 3.756509 -0.000000
												CHANNELS 3 Zrotation Yrotation Xrotation
												JOINT RightHandThumb4
												{
													OFFSET 0.000000 3.147345 0.000000
													CHANNELS 3 Zrotation Yrotation Xrotation
													End Site
													{
														OFFSET 0.000000 0.000000 0.000000
													}
												}
											}
										}
									}
									JOINT RightHandIndex1
									{
										OFFSET -0.086752 10.030893 2.345280
										CHANNELS 3 Zrotation Yrotation Xrotation
										JOINT RightHandIndex2
										{
											OFFSET -0.000000 4.061090 0.000000
											CHANNELS 3 Zrotation Yrotation Xrotation
											JOINT RightHandIndex3
											{
												OFFSET -0.000000 3.248873 0.000000
												CHANNELS 3 Zrotation Yrotation Xrotation
												JOINT RightHandIndex4
												{
													OFFSET 0.000000 2.639709 -0.000000
													CHANNELS 3 Zrotation Yrotation Xrotation
													End Site
													{
														OFFSET 0.000000 0.000000 0.000000
													}
												}
											}
										}
									}
									JOINT RightHandMiddle1
									{
										OFFSET 0.104102 9.502952 0.006768
										CHANNELS 3 Zrotation Yrotation Xrotation
										JOINT RightHandMiddle2
										{
											OFFSET 0.000000 4.568727 0.000000
											CHANNELS 3 Zrotation Yrotation Xrotation
											JOINT RightHandMiddle3
											{
												OFFSET 0.000000 3.654981 -0.000000
												CHANNELS 3 Zrotation Yrotation Xrotation
												JOINT RightHandMiddle4
												{
													OFFSET -0.000000 2.741236 -0.000000
													CHANNELS 3 Zrotation Yrotation Xrotation
													End Site
													{
														OFFSET 0.000000 0.000000 0.000000
													}
												}
											}
										}
									}
									JOINT RightHandRing1
									{
										OFFSET 0.086752 8.921708 -2.267442
										CHANNELS 3 Zrotation Yrotation Xrotation
										JOINT RightHandRing2
										{
											OFFSET -0.000000 4.061090 0.000000
											CHANNELS 3 Zrotation Yrotation Xrotation
											JOINT RightHandRing3
											{
												OFFSET 0.000000 3.654981 -0.000000
												CHANNELS 3 Zrotation Yrotation Xrotation
												JOINT RightHandRing4
												{
													OFFSET 0.000000 2.741236 -0.000000
													CHANNELS 3 Zrotation Yrotation Xrotation
													End Site
													{
														OFFSET 0.000000 0.000000 0.000000
													}
												}
											}
										}
									}
									JOINT RightHandPinky1
									{
										OFFSET -0.173504 7.976997 -4.467199
										CHANNELS 3 Zrotation Yrotation Xrotation
										JOINT RightHandPinky2
										{
											OFFSET 0.000000 3.350399 -0.000000
											CHANNELS 3 Zrotation Yrotation Xrotation
											JOINT RightHandPinky3
											{
												OFFSET -0.000000 2.842763 0.000000
												CHANNELS 3 Zrotation Yrotation Xrotation
												JOINT RightHandPinky4
												{
													OFFSET -0.000000 2.639709 0.000000
													CHANNELS 3 Zrotation Yrotation Xrotation
													End Site
													{
														OFFSET 0.000000 0.000000 0.000000
													}
												}
											}
										}
									}
									JOINT RightForeArmEnd
									{
										OFFSET 0.000000 0.000000 0.000000
										CHANNELS 3 Zrotation Yrotation Xrotation
										End Site
										{
											OFFSET 0.000000 0.000000 0.000000
										}
									}
								}
								JOINT RightArmEnd
								{
									OFFSET 0.000000 0.000000 0.000000
									CHANNELS 3 Zrotation Yrotation Xrotation
									End Site
									{
										OFFSET 0.000000 0.000000 0.000000
									}
								}
							}
						}
					}
					JOINT LeftShoulder
					{
						OFFSET 2.625389 11.175210 0.000000
						CHANNELS 3 Zrotation Yrotation Xrotation
						JOINT LeftArm
						{
							OFFSET 0.000000 10.813635 -0.000000
							CHANNELS 3 Zrotation Yrotation Xrotation
							JOINT LeftForeArm
							{
								OFFSET 0.000000 28.724781 0.000000
								CHANNELS 3 Zrotation Yrotation Xrotation
								JOINT LeftHand
								{
									OFFSET 0.644384 25.716167 -0.328871
									CHANNELS 3 Zrotation Yrotation Xrotation
									JOINT LeftHandThumb1
									{
										OFFSET 2.867323 3.959563 2.944291
										CHANNELS 3 Zrotation Yrotation Xrotation
										JOINT LeftHandThumb2
										{
											OFFSET 0.000000 3.350399 0.000000
											CHANNELS 3 Zrotation Yrotation Xrotation
											JOINT LeftHandThumb3
											{
												OFFSET -0.000000 3.756509 0.000000
												CHANNELS 3 Zrotation Yrotation Xrotation
												JOINT LeftHandThumb4
												{
													OFFSET -0.000000 3.100000 0.000000
													CHANNELS 3 Zrotation Yrotation Xrotation
													End Site
													{
														OFFSET 0.000000 0.000000 0.000000
													}
												}
											}
										}
									}
									JOINT LeftHandIndex1
									{
										OFFSET 0.086752 10.030893 2.345280
										CHANNELS 3 Zrotation Yrotation Xrotation
										JOINT LeftHandIndex2
										{
											OFFSET -0.000000 4.061090 -0.000000
											CHANNELS 3 Zrotation Yrotation Xrotation
											JOINT LeftHandIndex3
											{
												OFFSET 0.000000 3.248873 -0.000000
												CHANNELS 3 Zrotation Yrotation Xrotation
												JOINT LeftHandIndex4
												{
													OFFSET 0.000000 2.639709 -0.000000
													CHANNELS 3 Zrotation Yrotation Xrotation
													End Site
													{
														OFFSET 0.000000 0.000000 0.000000
													}
												}
											}
										}
									}
									JOINT LeftHandMiddle1
									{
										OFFSET -0.104102 9.502952 0.006768
										CHANNELS 3 Zrotation Yrotation Xrotation
										JOINT LeftHandMiddle2
										{
											OFFSET -0.000000 4.568727 -0.000000
											CHANNELS 3 Zrotation Yrotation Xrotation
											JOINT LeftHandMiddle3
											{
												OFFSET 0.000000 3.654981 0.000000
												CHANNELS 3 Zrotation Yrotation Xrotation
												JOINT LeftHandMiddle4
												{
													OFFSET 0.000000 2.741236 -0.000000
													CHANNELS 3 Zrotation Yrotation Xrotation
													End Site
													{
														OFFSET 0.000000 0.000000 0.000000
													}
												}
											}
										}
									}
									JOINT LeftHandRing1
									{
										OFFSET -0.086752 8.921708 -2.267442
										CHANNELS 3 Zrotation Yrotation Xrotation
										JOINT LeftHandRing2
										{
											OFFSET 0.000000 4.061090 0.000000
											CHANNELS 3 Zrotation Yrotation Xrotation
											JOINT LeftHandRing3
											{
												OFFSET 0.000000 3.654981 0.000000
												CHANNELS 3 Zrotation Yrotation Xrotation
												JOINT LeftHandRing4
												{
													OFFSET 0.000000 2.741236 0.000000
													CHANNELS 3 Zrotation Yrotation Xrotation
													End Site
													{
														OFFSET 0.000000 0.000000 0.000000
													}
												}
											}
										}
									}
									JOINT LeftHandPinky1
									{
										OFFSET 0.173504 7.976997 -4.467199
										CHANNELS 3 Zrotation Yrotation Xrotation
										JOINT LeftHandPinky2
										{
											OFFSET -0.000000 3.350399 -0.000000
											CHANNELS 3 Zrotation Yrotation Xrotation
											JOINT LeftHandPinky3
											{
												OFFSET 0.000000 2.842763 0.000000
												CHANNELS 3 Zrotation Yrotation Xrotation
												JOINT LeftHandPinky4
												{
													OFFSET -0.000000 2.639709 -0.000000
													CHANNELS 3 Zrotation Yrotation Xrotation
													End Site
													{
														OFFSET 0.000000 0.000000 0.000000
													}
												}
											}
										}
									}
									JOINT LeftForeArmEnd
									{
										OFFSET 0.000000 0.000000 0.000000
										CHANNELS 3 Zrotation Yrotation Xrotation
										End Site
										{
											OFFSET 0.000000 0.000000 0.000000
										}
									}
								}
								JOINT LeftArmEnd
								{
									OFFSET 0.000000 0.000000 0.000000
									CHANNELS 3 Zrotation Yrotation Xrotation
									End Site
									{
										OFFSET 0.000000 0.000000 0.000000
									}
								}
							}
						}
					}
				}
			}
		}
	}
	JOINT RightUpLeg
	{
		OFFSET -11.289943 0.000000 0.000000
		CHANNELS 3 Zrotation Yrotation Xrotation
		JOINT RightLeg
		{
			OFFSET 0.000000 -38.200325 0.000000
			CHANNELS 3 Zrotation Yrotation Xrotation
			JOINT RightFoot
			{
				OFFSET -0.000000 -39.900856 -0.000000
				CHANNELS 3 Zrotation Yrotation Xrotation
				JOINT RightToeBase
				{
					OFFSET 0.000000 0.000000 15.261641
					CHANNELS 3 Zrotation Yrotation Xrotation
					JOINT RightToeBaseEnd
					{
						OFFSET 0.000000 0.000000 7.370709
						CHANNELS 3 Zrotation Yrotation Xrotation
						End Site
						{
							OFFSET 0.000000 0.000000 0.000000
						}
					}
				}
				JOINT RightLegEnd
				{
					OFFSET 0.000000 0.000000 0.000000
					CHANNELS 3 Zrotation Yrotation Xrotation
					End Site
					{
						OFFSET 0.000000 0.000000 0.000000
					}
				}
			}
			JOINT RightUpLegEnd
			{
				OFFSET 0.000000 0.000000 0.000000
				CHANNELS 3 Zrotation Yrotation Xrotation
				End Site
				{
					OFFSET 0.000000 0.000000 0.000000
				}
			}
		}
	}
	JOINT LeftUpLeg
	{
		OFFSET 11.315661 -0.000000 0.000000
		CHANNELS 3 Zrotation Yrotation Xrotation
		JOINT LeftLeg
		{
			OFFSET -0.000000 -38.200325 -0.000000
			CHANNELS 3 Zrotation Yrotation Xrotation
			JOINT LeftFoot
			{
				OFFSET 0.000000 -39.900856 -0.000000
				CHANNELS 3 Zrotation Yrotation Xrotation
				JOINT LeftToeBase
				{
					OFFSET -0.000000 -0.000000 15.261641
					CHANNELS 3 Zrotation Yrotation Xrotation
					JOINT LeftToeBaseEnd
					{
						OFFSET 0.000000 -0.000000 7.539996
						CHANNELS 3 Zrotation Yrotation Xrotation
						End Site
						{
							OFFSET 0.000000 0.000000 0.000000
						}
					}
				}
				JOINT LeftLegEnd
				{
					OFFSET 0.000000 0.000000 0.000000
					CHANNELS 3 Zrotation Yrotation Xrotation
					End Site
					{
						OFFSET 0.000000 0.000000 0.000000
					}
				}
			}
			JOINT LeftUpLegEnd
			{
				OFFSET 0.000000 0.000000 0.000000
				CHANNELS 3 Zrotation Yrotation Xrotation
				End Site
				{
					OFFSET 0.000000 0.000000 0.000000
				}
			}
		}
	}
}
MOTION
Frames: 4
Frame Time: 0.016667
0.621156 88.830376 3.141181 0.010226 -1.223292 -10.339077 0.893460 0.102924 7.022103 -0.636752 0.206272 2.318739 0.001534 -0.690496 4.603756 -1.059010 0.129107 4.108192 1.690886 1.014585 3.955421 0.467007 1.468553 -3.511992 -0.580017 -0.966266 -19.733755 0.000000 0.000000 0.000000 91.957916 -0.184260 10.228591 68.064087 -27.718767 3.824909 0.037984 18.119753 29.395052 2.848310 9.972343 -7.552248 19.874411 30.137297 62.009087 -8.403376 -12.308785 -20.652477 -6.309154 -8.075871 -14.281134 0.000000 0.000000 0.000000 13.427251 -11.223338 1.294862 11.062052 0.314971 1.473315 10.788143 -0.116310 1.432098 0.000000 0.000000 0.000000 12.307170 -5.620066 0.058326 9.642081 0.426554 0.562504 10.110379 -0.062703 0.490064 0.000000 0.000000 0.000000 12.434503 2.351136 -0.218053 9.813691 -0.871512 -0.871346 9.795839 0.077812 -0.646589 0.000000 0.000000 0.000000 11.068855 10.992052 -1.320257 8.934762 -1.594002 -2.626403 8.843307 0.300829 -2.167650 0.000000 0.000000 0.000000 0.000000 0.000000 0.000000 0.000000 0.000000 0.000000 -89.050636 0.056668 5.512111 -73.336288 15.315631 -6.079083 -0.536749 -14.133341 54.146610 2.661344 -11.000031 -13.220559 -20.083107 -30.087378 61.781925 8.674694 12.580896 -21.134275 6.445903 8.439789 -14.890967 0.000000 0.000000 0.000000 -18.009800 -5.598899 2.617670 -12.037476 0.339285 -1.173340 -11.866380 -0.124693 -1.118260 0.000000 0.000000 0.000000 -17.695839 -0.496036 0.856649 -11.872270 0.415172 -0.526528 -12.066218 -0.072471 -0.423586 0.000000 0.000000 0.000000 -20.602348 7.793118 -0.953586 -14.070276 -0.874373 0.893018 -14.055037 0.086638 0.700699 0.000000 0.000000 0.000000 -22.233139 16.602953 -3.610057 -15.154550 -1.549459 3.005484 -14.824252 0.423655 2.612289 0.000000 0.000000 0.000000 0.000000 0.000000 0.000000 0.000000 0.000000 0.000000 -1.461404 -8.917154 14.532941 -0.077444 -0.713400 5.404995 -2.267716 -7.370694 17.813715 -0.901237 0.770501 -18.653481 0.000000 0.000000 0.000000 0.000000 0.000000 0.000000 0.000000 0.000000 0.000000 -2.194208 -5.742587 9.222018 0.051516 0.261445 10.147856 4.342535 -0.158720 16.871765 0.264437 -0.398370 -20.859056 0.000000 0.000000 0.000000 0.000000 0.000000 0.000000 0.000000 0.000000 0.000000 
0.625250 88.825768 3.148162 0.021732 -1.224829 -10.376479 0.892302 0.109783 7.022137 -0.637320 0.210456 2.321299 -0.003236 -0.649233 4.626659 -1.073672 0.147701 4.122218 1.709850 0.966763 3.987752 0.466598 1.409863 -3.494242 -0.563281 -0.969214 -19.754341 0.000000 0.000000 0.000000 91.937134 -0.179618 10.237981 68.118446 -27.655287 3.808288 0.044351 18.178162 29.398874 2.812352 10.065264 -7.563043 19.864538 30.140079 62.016838 -8.392218 -12.291386 -20.626846 -6.300437 -8.062169 -14.259337 0.000000 0.000000 0.000000 13.344356 -11.215379 1.379181 11.067752 0.314164 1.475345 10.796700 -0.117063 1.434102 0.000000 0.000000 0.000000 12.239400 -5.610189 0.096773 9.656244 0.426161 0.562613 10.123049 -0.063073 0.490406 0.000000 0.000000 0.000000 12.390690 2.362380 -0.214046 9.850601 -0.870761 -0.870588 9.833779 0.077920 -0.645565 0.000000 0.000000 0.000000 11.038583 11.006786 -1.351111 8.983739 -1.592978 -2.622983 8.896760 0.300667 -2.161449 0.000000 0.000000 0.000000 0.000000 0.000000 0.000000 0.000000 0.000000 0.000000 -89.022591 0.059689 5.490093 -73.260834 15.339805 -6.007550 -0.502654 -14.155936 54.481812 2.739610 -10.563540 -13.212582 -20.089033 -30.086073 61.776867 8.678163 12.595850 -21.153101 6.449554 8.448992 -14.901795 0.000000 0.000000 0.000000 -18.098373 -5.581456 2.680026 -12.113786 0.340035 -1.170321 -11.939311 -0.124291 -1.115696 0.000000 0.000000 0.000000 -17.794535 -0.477845 0.897382 -11.950916 0.415229 -0.526016 -12.147208 -0.072225 -0.422795 0.000000 0.000000 0.000000 -20.737442 7.816552 -0.948233 -14.181602 -0.874956 0.890474 -14.170991 0.086236 0.699165 0.000000 0.000000 0.000000 -22.369680 16.631466 -3.644397 -15.276904 -1.551120 2.997358 -14.945616 0.423081 2.602749 0.000000 0.000000 0.000000 0.000000 0.000000 0.000000 0.000000 0.000000 0.000000 -1.494907 -8.931374 14.548867 -0.078855 -0.716188 5.424079 -2.255446 -7.361534 17.805302 -0.905454 0.772497 -18.654449 0.000000 0.000000 0.000000 0.000000 0.000000 0.000000 0.000000 0.000000 0.000000 -2.196507 -5.754184 9.234591 0.052028 0.260740 10.206305 4.349340 -0.183953 16.860834 0.259672 -0.396058 -20.868912 0.000000 0.000000 0.000000 0.000000 0.000000 0.000000 0.000000 0.000000 0.000000 
0.628251 88.820915 3.155310 0.032385 -1.227358 -10.414330 0.891512 0.116489 7.025024 -0.637706 0.214949 2.326609 -0.005370 -0.608945 4.647497 -1.087199 0.166090 4.136879 1.733646 0.917698 4.020514 0.466933 1.352325 -3.473951 -0.546991 -0.972750 -19.769402 0.000000 0.000000 0.000000 91.926476 -0.172909 10.248503 68.154198 -27.593277 3.800326 0.052222 18.228853 29.359331 2.766533 10.146702 -7.566441 19.854029 30.143005 62.026249 -8.380923 -12.271675 -20.597952 -6.291392 -8.046926 -14.236134 0.000000 0.000000 0.000000 13.251452 -11.204753 1.460842 11.063346 0.313824 1.476136 10.794507 -0.117420 1.434963 0.000000 0.000000 0.000000 12.162035 -5.598420 0.133840 9.661232 0.425909 0.562040 10.124954 -0.063291 0.490260 0.000000 0.000000 0.000000 12.342085 2.374777 -0.209093 9.880036 -0.869992 -0.869230 9.863292 0.078028 -0.644149 0.000000 0.000000 0.000000 11.006601 11.022273 -1.376923 9.028247 -1.591793 -2.619022 8.944385 0.300642 -2.154725 0.000000 0.000000 0.000000 0.000000 0.000000 0.000000 0.000000 0.000000 0.000000 -89.004417 0.063508 5.468306 -73.173607 15.370301 -5.940956 -0.471486 -14.177840 54.767334 2.832515 -10.128557 -13.206477 -20.093987 -30.084974 61.773018 8.681804 12.608994 -21.168533 6.452567 8.456331 -14.911344 0.000000 0.000000 0.000000 -18.168234 -5.568104 2.748113 -12.179010 0.341287 -1.164409 -12.002782 -0.123477 -1.110211 0.000000 0.000000 0.000000 -17.882725 -0.461831 0.944884 -12.018137 0.415428 -0.524405 -12.217665 -0.071819 -0.421119 0.000000 0.000000 0.000000 -20.868874 7.839344 -0.934810 -14.284627 -0.875734 0.887076 -14.277611 0.085662 0.697109 0.000000 0.000000 0.000000 -22.510715 16.659662 -3.668120 -15.394982 -1.552774 2.988510 -15.062602 0.422261 2.592428 0.000000 0.000000 0.000000 0.000000 0.000000 0.000000 0.000000 0.000000 0.000000 -1.524768 -8.949036 14.570239 -0.080149 -0.718675 5.437994 -2.248052 -7.351526 17.795511 -0.909375 0.774431 -18.654221 0.000000 0.000000 0.000000 0.000000 0.000000 0.000000 0.000000 0.000000 0.000000 -2.196565 -5.766750 9.250276 0.052545 0.260169 10.260459 4.356371 -0.212514 16.848232 0.254733 -0.393703 -20.877031 0.000000 0.000000 0.000000 0.000000 0.000000 0.000000 0.000000 0.000000 0.000000 
0.630259 88.815689 3.162120 0.042050 -1.231454 -10.451324 0.891023 0.122847 7.030874 -0.637363 0.219552 2.334108 -0.005781 -0.570013 4.666025 -1.099770 0.183793 4.152010 1.762014 0.867787 4.059747 0.468434 1.296549 -3.449739 -0.531161 -0.976847 -19.781155 0.000000 0.000000 0.000000 91.924301 -0.163718 10.259595 68.172081 -27.537598 3.799388 0.061691 18.269592 29.278772 2.713017 10.222101 -7.564429 19.844107 30.145807 62.036091 -8.370545 -12.252250 -20.569372 -6.283055 -8.031964 -14.214098 0.000000 0.000000 0.000000 13.156420 -11.193157 1.538397 11.051263 0.314037 1.476199 10.783670 -0.117307 1.435162 0.000000 0.000000 0.000000 12.081916 -5.585982 0.169104 9.658934 0.425846 0.560950 10.118067 -0.063340 0.489788 0.000000 0.000000 0.000000 12.294615 2.387407 -0.202707 9.902804 -0.869314 -0.867421 9.884686 0.078063 -0.642463 0.000000 0.000000 0.000000 10.978038 11.037575 -1.396615 9.068534 -1.590889 -2.614543 8.986448 0.300400 -2.147429 0.000000 0.000000 0.000000 0.000000 0.000000 0.000000 0.000000 0.000000 0.000000 -88.996346 0.067947 5.446590 -73.077873 15.409439 -5.874819 -0.443830 -14.194123 54.989353 2.939904 -9.712306 -13.199095 -20.097084 -30.084274 61.771149 8.685115 12.618137 -21.177927 6.454294 8.460321 -14.917925 0.000000 0.000000 0.000000 -18.211472 -5.560206 2.822804 -12.227531 0.342965 -1.157030 -12.051035 -0.122279 -1.103114 0.000000 0.000000 0.000000 -17.952324 -0.449499 1.000310 -12.067415 0.415751 -0.522150 -12.271276 -0.071288 -0.418962 0.000000 0.000000 0.000000 -20.984394 7.859265 -0.911217 -14.369872 -0.876748 0.883283 -14.365156 0.084895 0.694891 0.000000 0.000000 0.000000 -22.642174 16.685009 -3.678415 -15.498366 -1.554735 2.979783 -15.164728 0.420913 2.582168 0.000000 0.000000 0.000000 0.000000 0.000000 0.000000 0.000000 0.000000 0.000000 -1.549838 -8.968386 14.595989 -0.081303 -0.720786 5.446770 -2.246239 -7.341024 17.784639 -0.912728 0.776160 -18.652794 0.000000 0.000000 0.000000 0.000000 0.000000 0.000000 0.000000 0.000000 0.000000 -2.194805 -5.780689 9.268269 0.053039 0.259696 10.310357 4.363398 -0.243139 16.833546 0.249644 -0.391218 -20.883257 0.000000 0.000000 0.000000 0.000000 0.000000 0.000000 0.000000 0.000000 0.000000 
